<?xml version="1.0" encoding="UTF-8" standalone="no"?> <!-- Created with Vectornator for iOS (http://vectornator.io/) --><!DOCTYPE svg PUBLIC "-//W3C//DTD SVG 1.1//EN" "http://www.w3.org/Graphics/SVG/1.1/DTD/svg11.dtd">
<svg style="fill-rule:evenodd;clip-rule:evenodd;stroke-linecap:round;stroke-linejoin:round;" xmlns:vectornator="http://vectornator.io" xmlns:xlink="http://www.w3.org/1999/xlink" xmlns="http://www.w3.org/2000/svg" xml:space="preserve" version="1.1" viewBox="0 0 500 500">
<metadata>
<vectornator:setting key="DynamicGuides" value="1"/>
<vectornator:setting key="Units" value="Points"/>
<vectornator:setting key="GuidesVisible" value="1"/>
<vectornator:setting key="RulersVisible" value="1"/>
<vectornator:setting key="SnapToGuides" value="1"/>
<vectornator:setting key="GridSpacing" value="36"/>
</metadata>
<defs/>
<g id="freepik--background-simple--inject-2" vectornator:layerName="freepik--background-simple--inject-2">
<path d="M44.41+320.29C44.41+320.29+71.14+390.8+146.54+417.16C221.94+443.52+305.04+417.58+372.91+398.35C440.78+379.12+478.76+323.06+466.86+263.15C454.96+203.24+398.53+204.62+348.74+149.41C298.95+94.2+294.07+71.94+222.19+52.76C150.31+33.58+67.71+90.75+43.48+176.39C19.25+262.03+44.41+320.29+44.41+320.29Z" opacity="1" fill="#92e3a9"/>
<path d="M44.41+320.29C44.41+320.29+71.14+390.8+146.54+417.16C221.94+443.52+305.04+417.58+372.91+398.35C440.78+379.12+478.76+323.06+466.86+263.15C454.96+203.24+398.53+204.62+348.74+149.41C298.95+94.2+294.07+71.94+222.19+52.76C150.31+33.58+67.71+90.75+43.48+176.39C19.25+262.03+44.41+320.29+44.41+320.29Z" opacity="0.7" fill="#ffffff"/>
</g>
<g id="freepik--Clouds--inject-2" vectornator:layerName="freepik--Clouds--inject-2">
<path stroke="#263238" stroke-width="1" d="M202.46+83.63C199.945+86.3537+198.178+89.6814+197.33+93.29C193.49+88.1039+186.384+86.5977+180.77+89.78C179.734+77.4039+169.769+67.665+157.373+66.912C144.976+66.159+133.907+74.6204+131.38+86.78C125.29+80.7836+115.6+80.5172+109.19+86.17" fill="none" stroke-linecap="butt" opacity="1" stroke-linejoin="miter"/>
<path stroke="#263238" stroke-width="1" d="M270.65+57.24C268.953+56.9783+267.237+56.8479+265.52+56.85C249.988+56.8448+236.555+67.6714+233.26+82.85C226.289+75.9765+215.547+74.7006+207.16+79.75" fill="none" stroke-linecap="butt" opacity="1" stroke-linejoin="miter"/>
<path stroke="#263238" stroke-width="1" d="M289.19+66.87C286.861+64.4773+284.18+62.454+281.24+60.87" fill="none" stroke-linecap="butt" opacity="1" stroke-linejoin="miter"/>
<path stroke="#263238" stroke-width="1" d="M277.31+99L338.31+99C336.748+96.3829+334.142+94.558+331.148+93.9849C328.154+93.4118+325.059+94.145+322.64+96C321.005+91.2678+317.352+87.5064+312.67+85.7332C307.988+83.96+302.76+84.3581+298.4+86.82C297.851+80.8407+295.672+75.1267+292.1+70.3" fill="none" stroke-linecap="butt" opacity="1" stroke-linejoin="miter"/>
<path stroke="#263238" stroke-width="1" d="M106.64+89C104.696+91.7386+103.648+95.0118+103.64+98.37C103.64+98.57+103.64+98.77+103.64+98.97L265.24+98.97" fill="none" stroke-linecap="butt" opacity="1" stroke-linejoin="miter"/>
<path stroke="#263238" stroke-width="1" d="M323+109.84C319.07+106.49+313.668+105.452+308.777+107.109C303.886+108.765+300.225+112.871+299.14+117.92C296.686+115.484+293.104+114.568+289.782+115.527C286.46+116.487+283.918+119.17+283.14+122.54C281.421+120.247+278.271+119.58+275.77+120.98C275.329+115.453+270.887+111.093+265.352+110.756C259.817+110.419+254.879+114.207+253.77+119.64C251.687+117.594+248.579+116.997+245.887+118.127C243.194+119.256+241.441+121.89+241.44+124.81C241.44+124.9+241.44+124.98+241.44+125.07L345.87+125.07C345.165+123.908+343.999+123.101+342.663+122.851C341.327+122.601+339.948+122.932+338.87+123.76C338.143+121.655+336.518+119.983+334.436+119.194C332.353+118.406+330.028+118.584+328.09+119.68C327.996+118.585+327.774+117.504+327.43+116.46" fill="none" stroke-linecap="butt" opacity="1" stroke-linejoin="miter"/>
</g>
<g id="freepik--Mountain--inject-2" vectornator:layerName="freepik--Mountain--inject-2">
<path stroke="#263238" stroke-width="1" d="M48.73+232.83C48.73+232.83+185.88+105.55+201.59+104.63C217.13+103.72+328.71+219+328.71+219C328.71+219+405.53+152.24+413.76+152.24C421.99+152.24+433+166.82+433+166.82" fill="none" stroke-linecap="round" opacity="1" stroke-linejoin="round"/>
<path stroke="#263238" stroke-width="1" d="M294.87+197.92L287.96+191.32" fill="none" stroke-linecap="round" opacity="1" stroke-linejoin="round"/>
<path stroke="#263238" stroke-width="1" d="M216.36+132.47L240+154.02" fill="none" stroke-linecap="round" opacity="1" stroke-linejoin="round"/>
<path stroke="#263238" stroke-width="1" d="M208.9+125.67L213.3+129.67" fill="none" stroke-linecap="round" opacity="1" stroke-linejoin="round"/>
<path stroke="#263238" stroke-width="1" d="M280.39+184.08L233.6+139.38" fill="none" stroke-linecap="round" opacity="1" stroke-linejoin="round"/>
</g>
<g id="freepik--Trees--inject-2" vectornator:layerName="freepik--Trees--inject-2">
<path d="M447.65+404C446.74+396.77+434.09+407.62+434.09+407.62C435.8+403.299+436.718+398.706+436.8+394.06C436.8+386.83+427.8+395.86+427.8+395.86C427.8+395.86+434.13+384.11+433.23+371.46C432.33+358.81+418.76+373.27+418.76+373.27C418.76+373.27+424.19+354.27+425.09+348.86C425.99+343.45+399.78+355.19+399.78+355.19C399.78+355.19+401.59+347.05+402.49+338.92C402.96+334.76+398.49+336.49+393.97+339.18C392.97+335.56+390.3+335.31+387.33+336.44C387.52+335.54+387.73+334.56+387.96+333.51C388.96+328.64+382.02+334.13+376.25+339.32C375.552+332.996+372.691+327.107+368.15+322.65C363.78+318.28+359.07+323.15+355.15+329.99L348.66+331.99C348.58+330.73+348.45+329.43+348.26+328.09C347.09+319.91+340.26+328.73+335.57+335.99L330.57+337.53C329.77+332.41+327.81+324.94+322.99+319.05C314.86+309.11+295.87+337.13+295.87+337.13C295.87+337.13+284.12+318.13+279.6+328.13C275.08+338.13+281.41+358.87+281.41+358.87C281.41+358.87+278.7+351.63+275.09+349.87C271.48+348.11+261.53+356.19+261.53+356.19C261.53+356.19+266.95+343.54+261.53+339.02C256.62+334.93+250.25+349.31+249.07+352.11C249.9+349.99+253.07+340.81+250.68+328.17C247.97+313.71+237.12+332.69+237.12+332.69C237.12+332.69+238.93+314.61+228.99+311.9C219.05+309.19+233.51+311.9+223.56+329.98C213.61+348.06+217.24+317.33+202.77+319.13C188.3+320.93+191.93+375.18+191.93+375.18L134.9+342.56C134.9+342.56+132.19+337.13+123.01+335.49C113.83+333.85+119.54+348+119.54+348C119.54+348+106.88+336.25+101.46+336.25C100.05+336.25+95.72+342.52+90.08+351.8C89.67+350.85+89.25+349.88+88.81+348.9C85.38+341.37+82.48+358.21+81.27+366.82L80.27+368.55C79.54+364.3+77.41+357+71.63+357C64.63+357+68.34+381.12+69.51+387.82L69.51+387.9C68.61+384.09+66.02+374.9+61.73+374.17C56.31+373.27+60.82+394.06+60.82+394.06C60.82+394.06+57.21+391.35+54.5+391.35C52.5+391.35+55.27+403.96+56.95+411.05C51.25+421.65+47.38+429+47.38+429L83.38+409.43L272.57+409.43L263.42+422.09L444+422.09C444+422.09+448.55+411.25+447.65+404Z" opacity="1" fill="#000000"/>
<path d="M229.15+421.88L235.72+421.88L239.72+276.88L248.14+251.52L239.27+268.23L240.58+251.91L254.78+223.01L241.1+241.01L240+197.74L238.14+224.37L231.43+220.37L237.31+229.27L235.71+260.77L230.4+252.38L234.97+267.31L229.15+421.88Z" opacity="1" fill="#263238"/>
<path d="M254.22+431.49C251.88+422.21+248.05+410.69+242.71+406.39C233.23+398.75+217.81+410.76+209.51+405.3C201.21+399.84+218.99+346.37+190.51+343.1C162.03+339.83+151.37+394.39+138.32+399.84C125.27+405.29+120.53+385.66+102.74+384.57C87.19+383.57+57.13+421.85+49.82+431.49L254.22+431.49Z" opacity="1" fill="#92e3a9"/>
<path d="M254.22+431.49C251.88+422.21+248.05+410.69+242.71+406.39C233.23+398.75+217.81+410.76+209.51+405.3C201.21+399.84+218.99+346.37+190.51+343.1C162.03+339.83+151.37+394.39+138.32+399.84C125.27+405.29+120.53+385.66+102.74+384.57C87.19+383.57+57.13+421.85+49.82+431.49L254.22+431.49Z" opacity="0.46" fill="#000000"/>
<path d="M191+421.88L197.57+421.88L201.57+276.88L210+251.47L201.13+268.18L202.44+251.86L216.64+222.96L203+241L201.82+197.74L200+224.37L193.29+220.37L199.17+229.27L197.57+260.77L192.26+252.38L196.83+267.31L191+421.88Z" opacity="1" fill="#c7cacb"/>
<path d="M102.59+421.88L109.16+421.88L113.16+276.88L121.58+251.52L112.7+268.23L114.02+251.91L128.24+223L114.56+241L113.39+197.74L111.53+224.37L104.82+220.37L110.7+229.27L109.1+260.77L103.78+252.38L108.36+267.31L102.59+421.88Z" opacity="1" fill="#a8adaf"/>
<path d="M291.08+421.88L297.65+421.88L301.65+310.43L310.11+291L301.23+303.84L302.54+291.3L316.74+269L303.06+282.9L301.88+249.66L300+270.13L293.3+267.07L299.18+273.9L297.57+298.11L292.26+291.66L296.83+303.13L291.08+421.88Z" opacity="1" fill="#c7cacb"/>
<path d="M214.34+421.88L220.91+421.88L224.91+310.43L233.36+291L224.49+303.84L225.8+291.3L240+269L226.32+282.9L225.14+249.66L223.28+270.13L216.57+267.07L222.46+273.9L220.85+298.11L215.54+291.66L220.11+303.13L214.34+421.88Z" opacity="1" fill="#c7cacb"/>
<path d="M264.59+421.88L271.15+421.88L275.15+310.43L283.61+291L274.73+303.84L276.05+291.3L290.24+269L276.56+282.9L275.38+249.66L273.53+270.13L266.82+267.07L272.7+273.9L271.1+298.11L265.78+291.66L270.36+303.13L264.59+421.88Z" opacity="1" fill="#c7cacb"/>
<path d="M410.07+421.88L416.64+421.88L420.64+276.88L429.06+251.52L420.19+268.23L421.5+251.91L435.7+223.01L422.02+241.01L420.84+197.75L419+224.37L412.29+220.37L418.17+229.27L416.57+260.77L411.26+252.38L415.83+267.31L410.07+421.88Z" opacity="1" fill="#263238"/>
<path d="M370.32+421.88L376.88+421.88L380.88+276.88L389.31+251.52L380.43+268.23L381.75+251.91L396+223L382.32+241L381.14+197.74L379.29+224.37L372.58+220.37L378.46+229.27L376.86+260.77L371.54+252.38L376.12+267.31L370.32+421.88Z" opacity="1" fill="#8a9094"/>
<path d="M302.17+421.88L308.73+421.88L312.73+276.88L321.15+251.52L312.27+268.23L313.59+251.91L327.82+223L314.14+241L313+197.74L311.15+224.37L304.44+220.37L310.32+229.27L308.72+260.77L303.4+252.38L307.98+267.31L302.17+421.88Z" opacity="1" fill="#263238"/>
<path d="M401.13+431.49C399.13+422.21+395.79+410.69+391.18+406.39C382.97+398.75+369.62+410.76+362.44+405.3C355.26+399.84+370.65+346.37+346.02+343.1C321.39+339.83+312.15+394.39+300.86+399.84C289.57+405.29+285.46+385.66+270.07+384.57C256.61+383.57+230.6+421.85+224.27+431.49L401.13+431.49Z" opacity="1" fill="#92e3a9"/>
<path d="M401.13+431.49C399.13+422.21+395.79+410.69+391.18+406.39C382.97+398.75+369.62+410.76+362.44+405.3C355.26+399.84+370.65+346.37+346.02+343.1C321.39+339.83+312.15+394.39+300.86+399.84C289.57+405.29+285.46+385.66+270.07+384.57C256.61+383.57+230.6+421.85+224.27+431.49L401.13+431.49Z" opacity="0.25" fill="#000000"/>
<path d="M288.48+202.44C288.48+202.44+274.27+202.44+270.13+225.53C265.99+248.62+276.64+254.53+263.61+266.39C250.58+278.25+248.81+286.53+255.32+291.86C261.83+297.19+265.39+303.11+257.1+311.99C248.81+320.87+247.62+333.9+277.23+342.19C306.84+350.48+329.34+330.35+330.53+316.73C331.72+303.11+321.64+294.22+321.05+282.97C320.46+271.72+341.19+261.06+338.82+245.67C336.45+230.28+315.13+236.19+309.21+224.35C303.29+212.51+302.69+202.44+288.48+202.44Z" opacity="1" fill="#92e3a9"/>
<path d="M288.48+202.44C288.48+202.44+274.27+202.44+270.13+225.53C265.99+248.62+276.64+254.53+263.61+266.39C250.58+278.25+248.81+286.53+255.32+291.86C261.83+297.19+265.39+303.11+257.1+311.99C248.81+320.87+247.62+333.9+277.23+342.19C306.84+350.48+329.34+330.35+330.53+316.73C331.72+303.11+321.64+294.22+321.05+282.97C320.46+271.72+341.19+261.06+338.82+245.67C336.45+230.28+315.13+236.19+309.21+224.35C303.29+212.51+302.69+202.44+288.48+202.44Z" opacity="0.46" fill="#000000"/>
<path d="M278+426.87L283.19+426.87L290.53+282.39L297.19+262.39L290.19+275.6L291.19+262.7L302.41+239.84L291.6+254.11L290.66+219.91L289.2+240.91L283.89+237.77L288.54+244.77L287.27+269.67L283.07+263.04L286.69+274.84L278+426.87Z" opacity="1" fill="#92989b"/>
<path d="M199.56+431.49C201.08+422.93+203.56+412.29+207.05+408.33C213.23+401.28+223.26+412.33+228.67+407.33C234.08+402.33+222.49+352.95+241.02+349.93C259.55+346.91+266.5+397.26+275.02+402.3C283.54+407.34+286.6+389.2+298.18+388.2C308.31+387.32+327.87+422.61+332.63+431.5L199.56+431.49Z" opacity="1" fill="#92e3a9"/>
<path d="M199.56+431.49C201.08+422.93+203.56+412.29+207.05+408.33C213.23+401.28+223.26+412.33+228.67+407.33C234.08+402.33+222.49+352.95+241.02+349.93C259.55+346.91+266.5+397.26+275.02+402.3C283.54+407.34+286.6+389.2+298.18+388.2C308.31+387.32+327.87+422.61+332.63+431.5L199.56+431.49Z" opacity="0.46" fill="#000000"/>
<path d="M270.16+431.49C268.79+425.59+266.54+418.25+263.42+415.49C257.86+410.63+248.83+418.27+243.97+414.8C239.11+411.33+249.52+377.28+232.85+375.2C216.18+373.12+209.92+407.85+202.28+411.32C194.64+414.79+191.86+402.32+181.44+401.6C172.33+400.99+154.72+425.34+150.44+431.47L270.16+431.49Z" opacity="1" fill="#92e3a9"/>
<path d="M79.5+347.14C79.5+347.14+65.86+348.58+46.5+329.92C27.14+311.26+65.17+245.21+80.24+230.85C95.31+216.49+126.24+308.38+114.7+325.61C103.16+342.84+91+346.43+79.5+347.14Z" opacity="1" fill="#92e3a9"/>
<path d="M79.5+347.14C79.5+347.14+65.86+348.58+46.5+329.92C27.14+311.26+65.17+245.21+80.24+230.85C95.31+216.49+126.24+308.38+114.7+325.61C103.16+342.84+91+346.43+79.5+347.14Z" opacity="0.46" fill="#000000"/>
<path d="M73.75+422.52L75.91+326.33L66.57+316.28L76.62+322.02L76.62+304.79L63.7+289.72L75.91+299.05L74.47+286.85L78.06+292.59L80.21+258.13L81.65+310.53L105.34+297.61L81.65+317.71L81.65+327.04L81.65+425.39" opacity="1" fill="#263238"/>
<path d="M411.32+266.83C411.32+266.83+397.68+268.26+378.32+249.6C358.96+230.94+397+164.89+412+150.53C427+136.17+458+228.06+446.46+245.29C434.92+262.52+422.8+266.11+411.32+266.83Z" opacity="1" fill="#92e3a9"/>
<path d="M400.32+418.41L407.73+246.01L398.4+235.96L408.45+241.7L408.45+224.47L395.52+209.4L407.73+218.73L406.29+206.53L409.88+212.27L412.04+177.81L413.47+230.22L437.16+217.29L413.47+237.39L413.47+246.73L408.22+421.28" opacity="1" fill="#a8adaf"/>
<path d="M110.12+429C109.786+427.385+108.807+425.976+107.41+425.1C104.73+423.64+104.73+425.1+101.56+424.1C99.46+423.45+99.88+418.72+99.71+417.1C99.18+412.15+96.44+407.87+91.39+406.59C86.2831+405.247+80.8445+406.63+77+410.25C70.91+416.1+71.64+421.25+67.74+421.46C63.84+421.67+61.65+416.83+54.83+419.75C50.64+421.55+48.47+425.91+47.42+429.01L110.12+429Z" opacity="1" fill="#92e3a9"/>
<path d="M110.12+429C109.786+427.385+108.807+425.976+107.41+425.1C104.73+423.64+104.73+425.1+101.56+424.1C99.46+423.45+99.88+418.72+99.71+417.1C99.18+412.15+96.44+407.87+91.39+406.59C86.2831+405.247+80.8445+406.63+77+410.25C70.91+416.1+71.64+421.25+67.74+421.46C63.84+421.67+61.65+416.83+54.83+419.75C50.64+421.55+48.47+425.91+47.42+429.01L110.12+429Z" opacity="0.5" fill="#ffffff"/>
<path stroke="#263238" stroke-width="0.723107" d="M53.72+428.65C53.72+428.65+54.8+424.2+58.44+423.8C62.08+423.4+64.64+429.33+70.04+424.34C75.44+419.35+78.67+406.67+87.04+407.08C95.41+407.49+95.27+417.6+94.32+421.78C93.37+425.96+98.91+425.78+101.32+425.28C103.73+424.78+106.58+427.44+106.58+429.06" fill="none" stroke-linecap="round" opacity="1" stroke-linejoin="round"/>
<path stroke="#263238" stroke-width="0.723107" d="M61.27+428.92L58.31+426.23" fill="none" stroke-linecap="round" opacity="1" stroke-linejoin="round"/>
<path stroke="#263238" stroke-width="0.723107" d="M79.34+429.06L87.3+412.88" fill="none" stroke-linecap="round" opacity="1" stroke-linejoin="round"/>
<path stroke="#263238" stroke-width="0.723107" d="M83.25+414.09L84.2+419.35L90.54+415.84" fill="none" stroke-linecap="round" opacity="1" stroke-linejoin="round"/>
<path stroke="#263238" stroke-width="0.723107" d="M78.13+419.48L81.37+425.42L87.7+423.39" fill="none" stroke-linecap="round" opacity="1" stroke-linejoin="round"/>
<path d="M244.09+427.34C243.718+425.555+242.635+423.999+241.09+423.03C238.09+421.41+238.09+423.03+234.62+421.95C232.3+421.24+232.76+416.01+232.57+414.22C231.99+408.74+228.96+404.01+223.37+402.59C217.704+401.074+211.656+402.586+207.37+406.59C200.63+413.06+201.44+418.72+197.13+418.99C192.82+419.26+190.39+413.87+182.84+417.1C178.21+419.1+175.84+423.91+174.65+427.34L244.09+427.34Z" opacity="1" fill="#92e3a9"/>
<path d="M244.09+427.34C243.718+425.555+242.635+423.999+241.09+423.03C238.09+421.41+238.09+423.03+234.62+421.95C232.3+421.24+232.76+416.01+232.57+414.22C231.99+408.74+228.96+404.01+223.37+402.59C217.704+401.074+211.656+402.586+207.37+406.59C200.63+413.06+201.44+418.72+197.13+418.99C192.82+419.26+190.39+413.87+182.84+417.1C178.21+419.1+175.84+423.91+174.65+427.34L244.09+427.34Z" opacity="0.5" fill="#ffffff"/>
<path stroke="#263238" stroke-width="1" d="M190.05+427.24L186.77+424.26" fill="none" stroke-linecap="round" opacity="1" stroke-linejoin="round"/>
<path stroke="#263238" stroke-width="1" d="M210.04+427.39L218.84+409.49" fill="none" stroke-linecap="round" opacity="1" stroke-linejoin="round"/>
<path stroke="#263238" stroke-width="1" d="M214.37+410.83L215.41+416.65L222.42+412.77" fill="none" stroke-linecap="round" opacity="1" stroke-linejoin="round"/>
<path stroke="#263238" stroke-width="1" d="M208.7+416.8L212.28+423.37L219.29+421.13" fill="none" stroke-linecap="round" opacity="1" stroke-linejoin="round"/>
<path d="M132.69+134.66C132.69+134.66+112.22+134.66+106.25+167.92C100.28+201.18+115.63+209.71+96.87+226.76C78.11+243.81+75.55+255.76+84.94+263.43C94.33+271.1+99.43+279.63+87.49+292.43C75.55+305.23+73.85+323.99+116.49+335.93C159.13+347.87+191.49+318.87+193.24+299.26C194.99+279.65+180.44+266.85+179.59+250.65C178.74+234.45+208.59+219.1+205.17+196.93C201.75+174.76+171.06+183.28+162.54+166.23C154.02+149.18+153.16+134.66+132.69+134.66Z" opacity="1" fill="#92e3a9"/>
<path d="M132.69+134.66C132.69+134.66+112.22+134.66+106.25+167.92C100.28+201.18+115.63+209.71+96.87+226.76C78.11+243.81+75.55+255.76+84.94+263.43C94.33+271.1+99.43+279.63+87.49+292.43C75.55+305.23+73.85+323.99+116.49+335.93C159.13+347.87+191.49+318.87+193.24+299.26C194.99+279.65+180.44+266.85+179.59+250.65C178.74+234.45+208.59+219.1+205.17+196.93C201.75+174.76+171.06+183.28+162.54+166.23C154.02+149.18+153.16+134.66+132.69+134.66Z" opacity="0.18" fill="#000000"/>
<path d="M117.54+457.86L125+457.86L135.57+249.8L145.17+220.93L135.06+239.93L136.56+221.35L152.72+188.44L137.14+209L135.8+159.74L133.69+190.07L126.05+185.53L132.75+195.66L130.92+231.52L124.92+221.97L130.13+238.97L117.54+457.86Z" opacity="1" fill="#263238"/>
<path d="M326.64+154.25C326.64+154.25+306.19+154.96+301.38+188.41C296.57+221.86+312.2+229.84+294.05+247.54C275.9+265.24+273.75+277.26+283.39+284.6C293.03+291.94+298.44+300.29+286.95+313.49C275.46+326.69+274.42+345.49+317.44+355.94C360.46+366.39+391.85+336.29+392.87+316.63C393.89+296.97+378.96+284.69+377.54+268.53C376.12+252.37+405.42+236+401.24+214C397.06+192+366.68+201.55+357.56+184.8C348.44+168.05+347.09+153.54+326.64+154.25Z" opacity="1" fill="#92e3a9"/>
<path d="M326.64+154.25C326.64+154.25+306.19+154.96+301.38+188.41C296.57+221.86+312.2+229.84+294.05+247.54C275.9+265.24+273.75+277.26+283.39+284.6C293.03+291.94+298.44+300.29+286.95+313.49C275.46+326.69+274.42+345.49+317.44+355.94C360.46+366.39+391.85+336.29+392.87+316.63C393.89+296.97+378.96+284.69+377.54+268.53C376.12+252.37+405.42+236+401.24+214C397.06+192+366.68+201.55+357.56+184.8C348.44+168.05+347.09+153.54+326.64+154.25Z" opacity="0.25" fill="#ffffff"/>
<path d="M320.64+438.14L328.11+437.88L333.53+269.22L342.11+240L332.67+259.36L333.52+240.74L348.52+207.29L333.67+228.37L330.61+179.18L329.55+209.56L321.76+205.3L328.81+215.19L328.23+251.1L321.85+241.76L327.64+258.56L320.64+438.14Z" opacity="1" fill="#263238"/>
<path d="M452.6+431.49C450.82+423.79+447.89+414.22+443.81+410.65C436.57+404.31+424.81+414.28+418.45+409.75C412.09+405.22+425.69+360.82+403.95+358.1C382.21+355.38+374.05+400.69+364.08+405.22C354.11+409.75+350.49+393.44+336.9+392.53C325.02+391.74+302.06+423.53+296.47+431.53L452.6+431.49Z" opacity="1" fill="#92e3a9"/>
<path d="M207.13+433.47C207.81+428.19+208.18+418.47+202.86+413.17C195.31+405.62+183.99+417.88+181.16+417.88C178.33+417.88+177.38+410.34+168.89+403.73C160.4+397.12+150.02+405.62+144.36+403.73C138.7+401.84+149.08+372.6+133.04+371.66C117+370.72+111.34+411.28+100.04+411.28C88.74+411.28+86.83+403.73+75.51+410.34C66.64+415.51+61.83+428.2+60.16+433.47L207.13+433.47Z" opacity="1" fill="#92e3a9"/>
<path d="M207.13+433.47C207.81+428.19+208.18+418.47+202.86+413.17C195.31+405.62+183.99+417.88+181.16+417.88C178.33+417.88+177.38+410.34+168.89+403.73C160.4+397.12+150.02+405.62+144.36+403.73C138.7+401.84+149.08+372.6+133.04+371.66C117+370.72+111.34+411.28+100.04+411.28C88.74+411.28+86.83+403.73+75.51+410.34C66.64+415.51+61.83+428.2+60.16+433.47L207.13+433.47Z" opacity="0.25" fill="#000000"/>
<path stroke="#263238" stroke-width="1" d="M90.61+432.2L80.48+415.75" fill="none" stroke-linecap="round" opacity="1" stroke-linejoin="round"/>
<path stroke="#263238" stroke-width="1" d="M126.89+430.93L131.95+383.26" fill="none" stroke-linecap="round" opacity="1" stroke-linejoin="round"/>
<path stroke="#263238" stroke-width="1" d="M156+431.78L161.06+413.22" fill="none" stroke-linecap="round" opacity="1" stroke-linejoin="round"/>
<path stroke="#263238" stroke-width="1" d="M191.85+432.62L196.92+419.54" fill="none" stroke-linecap="round" opacity="1" stroke-linejoin="round"/>
<path stroke="#263238" stroke-width="1" d="M91.45+416.17L86.39+425.03L74.58+420.39" fill="none" stroke-linecap="round" opacity="1" stroke-linejoin="round"/>
<path stroke="#263238" stroke-width="1" d="M124.36+387.06L130.26+397.61L138.28+387.9" fill="none" stroke-linecap="round" opacity="1" stroke-linejoin="round"/>
<path stroke="#263238" stroke-width="1" d="M120.98+403.94L128.58+413.22L136.17+407.31" fill="none" stroke-linecap="round" opacity="1" stroke-linejoin="round"/>
<path stroke="#263238" stroke-width="1" d="M158.95+421.23L169.07+415.33" fill="none" stroke-linecap="round" opacity="1" stroke-linejoin="round"/>
<path stroke="#263238" stroke-width="1" d="M158.11+424.61L153.04+411.53" fill="none" stroke-linecap="round" opacity="1" stroke-linejoin="round"/>
<path stroke="#263238" stroke-width="1" d="M194.39+425.87L191.85+417.43" fill="none" stroke-linecap="round" opacity="1" stroke-linejoin="round"/>
<path stroke="#263238" stroke-width="1" d="M193.54+427.56L200.71+424.61" fill="none" stroke-linecap="round" opacity="1" stroke-linejoin="round"/>
<path d="M243.93+197.62C240.689+191.321+236.507+185.551+231.53+180.51C224.328+173.218+214.187+169.619+204+170.74C183.72+173.04+178.17+198.89+172.43+214.61C158.71+252.16+141.69+307.85+192.99+324.25C215.1+331.32+245.47+324.25+254.36+300.55C262.05+280.05+261.93+257.48+257.27+236.3C254.51+223.91+250.42+209.8+243.93+197.62Z" opacity="1" fill="#92e3a9"/>
<path d="M202+457.58L209.48+457.58L214+292.44L223.59+263.57L213.48+282.57L215+264L231.16+231.09L215.6+251.66L214.26+202.4L212.14+232.72L204.5+228.19L211.2+238.32L209.37+274.18L203.37+264.63L208.57+281.63L202+457.58Z" opacity="1" fill="#263238"/>
<path d="M212.31+354.29L212.45+349.41C211.26+349.41+209.57+349.82+209.57+351.62C209.57+353.11+211+353.89+212.31+354.29Z" opacity="1" fill="#808080"/>
<path d="M210.8+298.36C210.8+299.95+212.41+300.72+213.8+301.1L213.94+296.1C212.75+296.15+210.8+296.43+210.8+298.36Z" opacity="1" fill="#808080"/>
<path d="M209.88+320.84C209.88+322.54+211.73+323.31+213.16+323.65L213.3+318.65C212.19+318.58+209.88+318.73+209.88+320.84Z" opacity="1" fill="#808080"/>
<path d="M212.65+267.89C213.04+266.31+211.17+266.25+209.77+266.41L209.52+271.41C210.56+270.79+212.23+269.55+212.65+267.89Z" opacity="1" fill="#808080"/>
<path d="M206.49+428.89C206.49+430.75+208.7+431.5+210.16+431.79L210.3+426.72C209.5+426.63+206.49+426.49+206.49+428.89Z" opacity="1" fill="#808080"/>
<path d="M210.59+250.38L210.34+255.28C211.692+254.534+212.732+253.328+213.27+251.88C213.64+250.38+212+250.25+210.59+250.38Z" opacity="1" fill="#808080"/>
<path d="M212+236.18C212+237.85+213.8+238.62+215.22+238.97L215.08+233.97C213.93+234+212+234.27+212+236.18Z" opacity="1" fill="#808080"/>
<path d="M210+396.23C210.75+393.23+206.86+393.31+204.35+393.66L204.01+402.75C205.81+401.72+209.2+399.41+210+396.23Z" opacity="1" fill="#808080"/>
<path d="M210.8+405.8C210.8+405.8+206.8+405.19+206.8+407.96C206.8+409.96+209.3+410.66+210.74+410.96L210.87+406.22L210.8+405.8Z" opacity="1" fill="#808080"/>
<path d="M207.72+367.71C207.72+370.1+209.72+371.52+211.81+372.34L212.05+363.65C210+363.91+207.72+364.84+207.72+367.71Z" opacity="1" fill="#808080"/>
<path d="M205.64+359.05L205.46+363.92C206.793+363.178+207.814+361.982+208.34+360.55C208.72+359+207+358.92+205.64+359.05Z" opacity="1" fill="#808080"/>
<path d="M207.54+308.22L207.38+312.4C208.271+311.737+208.929+310.81+209.26+309.75C209.55+308.59+208.61+308.26+207.54+308.22Z" opacity="1" fill="#808080"/>
<path d="M208.34+386.72C208.82+384.81+205.96+385.12+204.66+385.36L204.46+390.66C205.06+390.36+207.79+388.91+208.34+386.72Z" opacity="1" fill="#808080"/>
<path d="M402.94+122.17C399.702+115.869+395.52+110.099+390.54+105.06C383.336+97.7653+373.191+94.1663+363+95.29C342.73+97.58+337.17+123.44+331.43+139.15C317.68+176.71+300.66+232.4+352+248.8C374.12+255.87+404.49+248.8+413.37+225.1C421.06+204.59+420.94+182.03+416.29+160.85C413.52+148.46+409.43+134.35+402.94+122.17Z" opacity="1" fill="#92e3a9"/>
<path d="M402.94+122.17C399.702+115.869+395.52+110.099+390.54+105.06C383.336+97.7653+373.191+94.1663+363+95.29C342.73+97.58+337.17+123.44+331.43+139.15C317.68+176.71+300.66+232.4+352+248.8C374.12+255.87+404.49+248.8+413.37+225.1C421.06+204.59+420.94+182.03+416.29+160.85C413.52+148.46+409.43+134.35+402.94+122.17Z" opacity="0.18" fill="#000000"/>
<path d="M358.13+429L365.61+429L373+217L382.59+188.13L372.49+207.13L374+188.57L390.17+155.66L374.59+176.21L373.27+127L371.15+157.32L363.52+152.79L370.21+162.92L368.39+198.78L362.34+189.23L367.54+206.23L358.13+429Z" opacity="1" fill="#263238"/>
<path d="M368.49+235.93C368.87+234.44+367.73+233.93+366.37+233.87L366.14+239.34C367.249+238.466+368.069+237.278+368.49+235.93Z" opacity="1" fill="#5c5c5c"/>
<path d="M362.86+321.15L362.61+327.72C364.02+326.82+365.98+325.23+366.5+323.17C367.02+321.11+364.71+321+362.86+321.15Z" opacity="1" fill="#5c5c5c"/>
<path d="M369.61+174.68L369.28+181.24C370.69+180.33+372.62+178.76+373.13+176.71C373.64+174.66+371.45+174.52+369.61+174.68Z" opacity="1" fill="#5c5c5c"/>
<path d="M367.74+254.71C367.841+254.384+367.841+254.036+367.74+253.71C369.168+252.341+370.204+250.614+370.74+248.71C371.5+245.71+368.74+244.98+365.92+245.02L365.37+258.12C366.484+257.247+367.31+256.059+367.74+254.71Z" opacity="1" fill="#5c5c5c"/>
<path d="M374.14+158.77L373.97+152.77C372.536+152.92+371.452+154.138+371.47+155.58C371.47+157.17+372.72+158.16+374.14+158.77Z" opacity="1" fill="#5c5c5c"/>
<path d="M366.73+203.52C367.318+202.94+367.801+202.264+368.16+201.52L368.08+203C369.49+202.14+371.75+200.47+372.3+198.24C372.85+196.01+370.39+196.03+368.51+196.24L368.39+198.69L368.31+198.56L368.31+199.25C367.75+198.59+366.47+198.5+365.31+198.58L366.73+203.52Z" opacity="1" fill="#5c5c5c"/>
<path d="M370.15+188.63C370.15+190.63+371.99+191.63+373.73+192.19L373.9+190.07L374.03+185.66C372.43+185.71+370.15+186.2+370.15+188.63Z" opacity="1" fill="#5c5c5c"/>
<path d="M361.27+363.75C362.08+363.35+365.76+361.39+366.5+358.44C367.14+355.86+363.29+356.28+361.5+356.6L361.27+363.75Z" opacity="1" fill="#5c5c5c"/>
<path d="M368.16+311.14C368.187+312.194+368.748+313.163+369.65+313.71L369.83+308.59C368.779+308.988+368.105+310.018+368.16+311.14Z" opacity="1" fill="#5c5c5c"/>
<path d="M371.48+261.62C370.31+261.51+366.42+261.38+366.42+264.56C366.42+266.23+367.74+267.23+369.21+267.83C368.773+268.333+368.544+268.984+368.57+269.65C368.57+271.21+369.73+272.19+371.09+272.8L371.48+261.62Z" opacity="1" fill="#5c5c5c"/>
<path d="M369.82+239.36C369.911+240.756+370.829+241.961+372.15+242.42L372.36+236.54C370.908+236.675+369.803+237.902+369.82+239.36Z" opacity="1" fill="#5c5c5c"/>
<path d="M372.53+207.15L372.7+204.97C370.18+205.46+367.7+206.82+367.7+210.31C367.7+213.54+370.35+215.44+373.21+216.56L373.52+205.36L372.53+207.15Z" opacity="1" fill="#5c5c5c"/>
<path d="M365.67+332.82C365.745+334.942+366.935+336.866+368.8+337.88L369.15+327.88C366.992+328.53+365.556+330.569+365.67+332.82Z" opacity="1" fill="#5c5c5c"/>
<path d="M367.54+374L367.74+368.36C366.17+367.36+363.27+367.54+361.12+367.84L360.66+380C363.383+378.553+365.736+376.5+367.54+374Z" opacity="1" fill="#5c5c5c"/>
<path d="M366.18+412.55C364.885+412.804+363.966+413.961+364.01+415.28C364.072+416.543+364.848+417.661+366.01+418.16L366.18+412.55Z" opacity="1" fill="#5c5c5c"/>
<path d="M364.42+387.07C364.42+388.64+365.6+389.62+366.97+390.23L367.18+384.23C365.81+384.45+364.42+385.17+364.42+387.07Z" opacity="1" fill="#5c5c5c"/>
<path d="M133.61+226.34C133.61+226.34+117.56+230.79+109+249.9C100.44+269.01+114.25+284.03+107.58+303.06C100.91+322.09+82+331.67+98.9+346.54C115.8+361.41+137.25+338+148.59+340C159.93+342+160.82+362.57+191.66+353.72C222.5+344.87+212.66+318.45+200.84+306.47C189.02+294.49+198.2+274.73+190.17+248.22C184+227.88+155.73+217.87+133.61+226.34Z" opacity="1" fill="#92e3a9"/>
<path d="M133.61+226.34C133.61+226.34+117.56+230.79+109+249.9C100.44+269.01+114.25+284.03+107.58+303.06C100.91+322.09+82+331.67+98.9+346.54C115.8+361.41+137.25+338+148.59+340C159.93+342+160.82+362.57+191.66+353.72C222.5+344.87+212.66+318.45+200.84+306.47C189.02+294.49+198.2+274.73+190.17+248.22C184+227.88+155.73+217.87+133.61+226.34Z" opacity="0.5" fill="#ffffff"/>
<path d="M146.16+470.03L151.4+318.63L115.31+293.35L151.8+313.62L152.09+291.74L144.04+278.98L153.15+287.32L155.63+258.48L157.54+302.12L183.16+287.88L157.87+309.6L157.18+336.5L178.07+328.71L156.83+342.76L153.64+469.7L146.16+470.03Z" opacity="1" fill="#263238"/>
<path d="M154+333.81C154.997+334.348+156.148+334.524+157.26+334.31L157.38+329.74C156+330.47+152+332.81+154+333.81Z" opacity="1" fill="#808080"/>
<path d="M148.18+411.64L148.05+415.4L148.05+416.21C149.336+415.468+150.534+414.583+151.62+413.57C152.72+412.44+150.32+411.9+148.18+411.64Z" opacity="1" fill="#808080"/>
<path d="M149.59+370.75L149.45+374.97C150.561+374.299+151.596+373.511+152.54+372.62C153.59+371.57+151.59+371+149.59+370.75Z" opacity="1" fill="#808080"/>
<path d="M148.89+391.26C150.208+390.51+151.433+389.607+152.54+388.57C153.69+387.42+151.2+386.88+149.05+386.63L148.98+388.56L148.89+391.26Z" opacity="1" fill="#808080"/>
<path d="M151.94+303L151.94+305C152.932+304.384+153.857+303.667+154.7+302.86C155.7+301.86+153.91+301.31+151.99+301.02L151.94+303Z" opacity="1" fill="#808080"/>
<path d="M151.14+326.2C153.208+325.014+155.131+323.591+156.87+321.96C158.69+320.15+154.8+319.29+151.39+318.89L151.14+326.2Z" opacity="1" fill="#808080"/>
<path d="M153.73+381.19C154.388+381.53+155.11+381.728+155.85+381.77L155.95+377.77C154.3+378.81+152.16+380.41+153.73+381.19Z" opacity="1" fill="#808080"/>
<path d="M152.91+365.94C153.956+366.473+155.069+366.86+156.22+367.09L156.42+359.09C153+361.4+149.78+364.38+152.91+365.94Z" opacity="1" fill="#808080"/>
<path d="M152.27+398.41C153.24+398.92+154.315+399.197+155.41+399.22L155.55+393.62C153.27+395+150.06+397.3+152.27+398.41Z" opacity="1" fill="#808080"/>
<path d="M155.1+411.5L155.21+407.02C153.69+407.86+150.21+410.02+152.06+410.95C152.99+411.45+154.054+411.642+155.1+411.5Z" opacity="1" fill="#808080"/>
<path d="M150.28+351L150.13+355.42C151.343+354.712+152.47+353.866+153.49+352.9C154.59+351.76+152.36+351.21+150.28+351Z" opacity="1" fill="#808080"/>
<path d="M243.19+457.86C242.824+456.073+241.739+454.514+240.19+453.55C237.19+451.93+237.19+453.55+233.72+452.47C231.4+451.76+231.86+446.47+231.67+444.73C231.09+439.26+228.06+434.53+222.47+433.11C216.804+431.58+210.749+433.093+206.47+437.11C199.73+443.58+200.54+449.24+196.23+449.5C191.92+449.76+189.49+444.38+181.94+447.62C177.31+449.62+174.94+454.43+173.75+457.86L243.19+457.86Z" opacity="1" fill="#92e3a9"/>
<path d="M243.19+457.86C242.824+456.073+241.739+454.514+240.19+453.55C237.19+451.93+237.19+453.55+233.72+452.47C231.4+451.76+231.86+446.47+231.67+444.73C231.09+439.26+228.06+434.53+222.47+433.11C216.804+431.58+210.749+433.093+206.47+437.11C199.73+443.58+200.54+449.24+196.23+449.5C191.92+449.76+189.49+444.38+181.94+447.62C177.31+449.62+174.94+454.43+173.75+457.86L243.19+457.86Z" opacity="0.5" fill="#ffffff"/>
<path stroke="#263238" stroke-width="1" d="M189.15+457.76L185.87+454.78" fill="none" stroke-linecap="round" opacity="1" stroke-linejoin="round"/>
<path stroke="#263238" stroke-width="1" d="M209.14+457.91L217.95+440.01" fill="none" stroke-linecap="round" opacity="1" stroke-linejoin="round"/>
<path stroke="#263238" stroke-width="1" d="M213.47+441.35L214.51+447.17L221.53+443.29" fill="none" stroke-linecap="round" opacity="1" stroke-linejoin="round"/>
<path stroke="#263238" stroke-width="1" d="M207.8+447.32L211.38+453.88L218.39+451.64" fill="none" stroke-linecap="round" opacity="1" stroke-linejoin="round"/>
<path d="M187+470.61C186.25+467.67+184.48+463.3+180.35+461.05C173.77+457.46+173.77+461.05+166+458.66C160.85+457.07+161.87+445.47+161.45+441.5C160.16+429.35+153.45+418.85+141.03+415.72C128.47+412.54+115.03+415.52+105.61+424.58C90.67+438.93+92.46+451.48+82.89+452.08C73.32+452.68+68+440.72+51.23+447.89C41+452.3+35.65+463+33.07+470.61L187+470.61Z" opacity="1" fill="#92e3a9"/>
<path stroke="#263238" stroke-width="1" d="M67.16+470.39L59.88+463.78" fill="none" stroke-linecap="round" opacity="1" stroke-linejoin="round"/>
<path stroke="#263238" stroke-width="1" d="M111.5+470.73L131.03+431.01" fill="none" stroke-linecap="round" opacity="1" stroke-linejoin="round"/>
<path stroke="#263238" stroke-width="1" d="M162.47+469.73L168.75+465.76" fill="none" stroke-linecap="round" opacity="1" stroke-linejoin="round"/>
<path stroke="#263238" stroke-width="1" d="M121.1+433.99L123.42+446.9L138.97+438.29" fill="none" stroke-linecap="round" opacity="1" stroke-linejoin="round"/>
<path stroke="#263238" stroke-width="1" d="M108.52+447.23L116.47+461.79L132.02+456.83" fill="none" stroke-linecap="round" opacity="1" stroke-linejoin="round"/>
<path stroke="#263238" stroke-width="1" d="M66.83+462.12L65.5+469.4L58.22+468.08" fill="none" stroke-linecap="round" opacity="1" stroke-linejoin="round"/>
<path stroke="#263238" stroke-width="1" d="M164.45+468.08L163.46+464.44" fill="none" stroke-linecap="round" opacity="1" stroke-linejoin="round"/>
<path d="M119.98+433.53C119.98+432.939+120.459+432.46+121.05+432.46C121.641+432.46+122.12+432.939+122.12+433.53C122.12+434.121+121.641+434.6+121.05+434.6C120.459+434.6+119.98+434.121+119.98+433.53Z" opacity="1" fill="#263238"/>
<path d="M132.09+431C132.118+431.436+131.879+431.846+131.485+432.035C131.09+432.224+130.621+432.154+130.299+431.858C129.977+431.563+129.867+431.101+130.021+430.692C130.175+430.283+130.563+430.009+131+430C131.574+429.983+132.058+430.426+132.09+431Z" opacity="1" fill="#263238"/>
<path d="M138.86+437.83C138.86+437.239+139.339+436.76+139.93+436.76C140.521+436.76+141+437.239+141+437.83C141+438.421+140.521+438.9+139.93+438.9C139.339+438.9+138.86+438.421+138.86+437.83Z" opacity="1" fill="#263238"/>
<path d="M133.67+456.64C133.674+457.075+133.415+457.468+133.014+457.637C132.613+457.805+132.151+457.714+131.843+457.407C131.536+457.099+131.445+456.637+131.613+456.236C131.782+455.835+132.175+455.576+132.61+455.58C133.193+455.585+133.665+456.057+133.67+456.64Z" opacity="1" fill="#263238"/>
<path d="M107.35+447.04C107.35+446.449+107.829+445.97+108.42+445.97C109.011+445.97+109.49+446.449+109.49+447.04C109.49+447.631+109.011+448.11+108.42+448.11C107.829+448.11+107.35+447.631+107.35+447.04Z" opacity="1" fill="#263238"/>
<path d="M162.39+464.44C162.39+463.849+162.869+463.37+163.46+463.37C164.051+463.37+164.53+463.849+164.53+464.44C164.53+465.031+164.051+465.51+163.46+465.51C162.869+465.51+162.39+465.031+162.39+464.44Z" opacity="1" fill="#263238"/>
<path d="M169.77+465.53C169.774+465.964+169.516+466.357+169.116+466.526C168.717+466.694+168.255+466.605+167.947+466.3C167.639+465.995+167.546+465.534+167.711+465.133C167.876+464.732+168.266+464.47+168.7+464.47C169.287+464.47+169.765+464.943+169.77+465.53Z" opacity="1" fill="#263238"/>
<path d="M65.76+462.12C65.76+461.529+66.2391+461.05+66.83+461.05C67.4209+461.05+67.9+461.529+67.9+462.12C67.9+462.711+67.4209+463.19+66.83+463.19C66.2391+463.19+65.76+462.711+65.76+462.12Z" opacity="1" fill="#263238"/>
<path d="M60.6+463.22C60.6+463.811+60.1209+464.29+59.53+464.29C58.9391+464.29+58.46+463.811+58.46+463.22C58.46+462.629+58.9391+462.15+59.53+462.15C60.1209+462.15+60.6+462.629+60.6+463.22Z" opacity="1" fill="#263238"/>
<path d="M56.68+468.02C56.68+467.429+57.1591+466.95+57.75+466.95C58.3409+466.95+58.82+467.429+58.82+468.02C58.82+468.611+58.3409+469.09+57.75+469.09C57.1591+469.09+56.68+468.611+56.68+468.02Z" opacity="1" fill="#263238"/>
<path stroke="#263238" stroke-width="1" d="M279.55+428.32C279.55+428.32+232.55+431.05+237.31+433.77C242.07+436.49+280.23+439.9+274.1+446.77C267.97+453.64+192.34+471.97+192.34+471.97" fill="none" stroke-linecap="round" opacity="1" stroke-linejoin="round"/>
<path stroke="#263238" stroke-width="1" d="M305.44+428.32C305.44+428.32+287.72+431.05+290.44+433.09C293.16+435.13+416.44+437.86+408.98+473.29" fill="none" stroke-linecap="round" opacity="1" stroke-linejoin="round"/>
<path d="M388.52+347.85C388.52+347.85+372.31+349.56+349.29+327.39C326.27+305.22+371.46+226.76+389.37+209.71C407.28+192.66+444+301.8+430.3+322.27C416.6+342.74+402.16+347+388.52+347.85Z" opacity="1" fill="#92e3a9"/>
<path d="M381.69+437.39L384.25+323.12L373.17+311.19L385.11+318.01L385.11+297.54L369.76+279.63L384.25+290.72L382.55+276.22L386.81+283.04L389.37+242.11L391.07+304.36L419.22+289.01L391.07+312.89L391.07+323.98L391.07+440.8" opacity="1" fill="#263238"/>
<path d="M387.94+388C388.66+386.2+384.07+386+382.85+385.93L382.73+391.39C384.33+390.75+387.34+389.47+387.94+388Z" opacity="1" fill="#808080"/>
<path d="M391.07+341.83C388.74+342.41+383.97+343.83+385.36+345.19C386.46+346.28+389.12+346.72+391.07+346.89L391.07+341.83Z" opacity="1" fill="#808080"/>
<path d="M388.28+357.22C389.01+355.4+383.54+355.4+383.54+355.4L383.54+355.49L383.43+360.29C384.72+359.83+387.71+358.64+388.28+357.22Z" opacity="1" fill="#808080"/>
<path d="M387.92+333.53C388.46+332.17+385.57+331.82+384.06+331.73L383.96+336.26C385.41+335.67+387.46+334.67+387.92+333.53Z" opacity="1" fill="#808080"/>
<path d="M382.55+412.86L382.19+415.39L382.12+418.53C383.37+418.11+387.25+416.67+387.94+414.93C388.77+412.86+382.55+412.86+382.55+412.86Z" opacity="1" fill="#808080"/>
<path d="M384.62+374.27C385.86+375.51+388.85+376+391.07+376.21L391.07+370.46C388.4+371.13+383.05+372.7+384.62+374.27Z" opacity="1" fill="#808080"/>
<path d="M385+321.5C386.16+322.66+389.1+323.08+391.07+323.23L391.07+318.05C388.92+318.56+383.53+320+385+321.5Z" opacity="1" fill="#808080"/>
<path d="M390.65+289C388.26+289.7+385.33+290.82+386.46+292C387.31+292.85+389.1+293.3+390.78+293.55L390.65+289Z" opacity="1" fill="#808080"/>
<path d="M391.07+397.43C388.4+398.1+383.07+399.67+384.62+401.24C385.86+402.48+388.85+402.98+391.07+403.18L391.07+397.43Z" opacity="1" fill="#808080"/>
<path d="M385.11+302.19L385.11+306.86C386.56+306.3+388.88+305.23+389.37+304C390+302.51+386.41+302.24+385.11+302.19Z" opacity="1" fill="#808080"/>
<path d="M444+438.64C444.74+431.89+439.25+424.64+432.3+424.29C426.06+423.99+419.2+428.18+414+424.72C409.75+421.89+409.66+415.85+409.18+410.72C408.7+405.59+407.3+400.51+403.98+396.72C400.66+392.93+395.08+390.72+390.32+392.46C380.73+395.99+380.14+411.72+370.32+414.62C363.54+416.62+356.47+410.99+349.51+412.24C340.99+413.76+337.14+423.19+330.6+427.8C329.92+428.28+327.08+430.34+323.82+432.72C321.09+434.72+318.07+436.93+315.82+438.64L444+438.64Z" opacity="1" fill="#92e3a9"/>
<path d="M444+438.64C444.74+431.89+439.25+424.64+432.3+424.29C426.06+423.99+419.2+428.18+414+424.72C409.75+421.89+409.66+415.85+409.18+410.72C408.7+405.59+407.3+400.51+403.98+396.72C400.66+392.93+395.08+390.72+390.32+392.46C380.73+395.99+380.14+411.72+370.32+414.62C363.54+416.62+356.47+410.99+349.51+412.24C340.99+413.76+337.14+423.19+330.6+427.8C329.92+428.28+327.08+430.34+323.82+432.72C321.09+434.72+318.07+436.93+315.82+438.64L444+438.64Z" opacity="0.5" fill="#ffffff"/>
<path stroke="#263238" stroke-width="1" d="M364.47+438.08L359.09+422.36" fill="none" stroke-linecap="round" opacity="1" stroke-linejoin="round"/>
<path stroke="#263238" stroke-width="1" d="M383.5+438.5L394.67+408.3" fill="none" stroke-linecap="round" opacity="1" stroke-linejoin="round"/>
<path stroke="#263238" stroke-width="1" d="M424.04+438.5L430.66+432.29" fill="none" stroke-linecap="round" opacity="1" stroke-linejoin="round"/>
<path stroke="#263238" stroke-width="1" d="M362.99+434.36L366.54+424.85" fill="none" stroke-linecap="round" opacity="1" stroke-linejoin="round"/>
<path stroke="#263238" stroke-width="1" d="M362.3+432.04L349.99+428.98" fill="none" stroke-linecap="round" opacity="1" stroke-linejoin="round"/>
<path stroke="#263238" stroke-width="1" d="M391.36+417.4L388.05+412.02" fill="none" stroke-linecap="round" opacity="1" stroke-linejoin="round"/>
<path stroke="#263238" stroke-width="1" d="M388.05+425.67L400.04+419.06" fill="none" stroke-linecap="round" opacity="1" stroke-linejoin="round"/>
<path stroke="#263238" stroke-width="1" d="M384.47+436.17L395.49+432.29" fill="none" stroke-linecap="round" opacity="1" stroke-linejoin="round"/>
<path stroke="#263238" stroke-width="1" d="M385.98+431.88L378.95+419.47" fill="none" stroke-linecap="round" opacity="1" stroke-linejoin="round"/>
<path d="M395.73+408.3C395.73+408.734+395.468+409.124+395.067+409.289C394.666+409.454+394.205+409.361+393.9+409.053C393.595+408.745+393.506+408.283+393.674+407.884C393.843+407.484+394.236+407.226+394.67+407.23C394.953+407.23+395.224+407.343+395.423+407.544C395.622+407.745+395.733+408.017+395.73+408.3Z" opacity="1" fill="#263238"/>
<path d="M389+411.93C389+412.521+388.521+413+387.93+413C387.339+413+386.86+412.521+386.86+411.93C386.86+411.339+387.339+410.86+387.93+410.86C388.215+410.857+388.488+410.969+388.69+411.17C388.891+411.372+389.003+411.645+389+411.93Z" opacity="1" fill="#263238"/>
<path d="M398.97+419.06C398.97+418.469+399.449+417.99+400.04+417.99C400.631+417.99+401.11+418.469+401.11+419.06C401.11+419.651+400.631+420.13+400.04+420.13C399.449+420.13+398.97+419.651+398.97+419.06Z" opacity="1" fill="#263238"/>
<path d="M377.88+419.47C377.88+418.879+378.359+418.4+378.95+418.4C379.541+418.4+380.02+418.879+380.02+419.47C380.02+420.061+379.541+420.54+378.95+420.54C378.359+420.54+377.88+420.061+377.88+419.47Z" opacity="1" fill="#263238"/>
<path d="M394.98+432.13C394.98+431.539+395.459+431.06+396.05+431.06C396.641+431.06+397.12+431.539+397.12+432.13C397.12+432.721+396.641+433.2+396.05+433.2C395.459+433.2+394.98+432.721+394.98+432.13Z" opacity="1" fill="#263238"/>
<path d="M429.17+432.55C429.17+431.959+429.649+431.48+430.24+431.48C430.831+431.48+431.31+431.959+431.31+432.55C431.31+433.141+430.831+433.62+430.24+433.62C429.649+433.62+429.17+433.141+429.17+432.55Z" opacity="1" fill="#263238"/>
<path d="M360.16+422.36C360.164+422.794+359.906+423.187+359.506+423.356C359.107+423.524+358.645+423.435+358.337+423.13C358.029+422.825+357.936+422.364+358.101+421.963C358.266+421.562+358.656+421.3+359.09+421.3C359.677+421.3+360.155+421.773+360.16+422.36Z" opacity="1" fill="#263238"/>
<path d="M365.28+424.88C365.28+424.289+365.759+423.81+366.35+423.81C366.941+423.81+367.42+424.289+367.42+424.88C367.42+425.471+366.941+425.95+366.35+425.95C365.759+425.95+365.28+425.471+365.28+424.88Z" opacity="1" fill="#263238"/>
<path d="M348.92+428.98C348.92+428.389+349.399+427.91+349.99+427.91C350.581+427.91+351.06+428.389+351.06+428.98C351.06+429.571+350.581+430.05+349.99+430.05C349.399+430.05+348.92+429.571+348.92+428.98Z" opacity="1" fill="#263238"/>
<path d="M474.76+453.54C474.317+451.36+472.997+449.458+471.11+448.28C467.49+446.28+467.49+448.28+463.22+446.97C460.39+446.1+460.95+439.72+460.72+437.53C460.01+430.86+456.31+425.09+449.49+423.36C442.588+421.499+435.215+423.341+430+428.23C421.78+436.12+422.77+443.02+417.51+443.35C412.25+443.68+409.29+437.11+400.09+441.05C394.44+443.47+391.52+449.35+390.09+453.54L474.76+453.54Z" opacity="1" fill="#92e3a9"/>
<path stroke="#263238" stroke-width="1" d="M408.86+453.42L404.86+449.78" fill="none" stroke-linecap="round" opacity="1" stroke-linejoin="round"/>
<path stroke="#263238" stroke-width="1" d="M433.24+453.6L443.98+431.77" fill="none" stroke-linecap="round" opacity="1" stroke-linejoin="round"/>
<path stroke="#263238" stroke-width="1" d="M438.52+433.41L439.79+440.5L448.34+435.77" fill="none" stroke-linecap="round" opacity="1" stroke-linejoin="round"/>
<path stroke="#263238" stroke-width="1" d="M431.61+440.69L435.97+448.69L444.52+445.96" fill="none" stroke-linecap="round" opacity="1" stroke-linejoin="round"/>
</g>
</svg>
